<svg width="180" height="43" xmlns="http://www.w3.org/2000/svg">
 <!-- Created with SVG Editor - http://github.com/mzalive/SVG Editor/ -->
 <g>
  <title>background</title>
  <rect fill="none" id="canvas_background" height="45" width="182" y="-1" x="-1"/>
  <g display="none" overflow="visible" y="0" x="0" height="100%" width="100%" id="canvasGrid">
   <rect fill="url(#gridpattern)" stroke-width="0" y="0" x="0" height="100%" width="100%"/>
  </g>
 </g>
 <g>
  <title>Layer 1</title>
  <path stroke="#124591" id="svg_1" d="m156.783219,37.921935c-2.037115,-0.540404 -3.217274,-2.762124 -3.078067,-4.777594c-0.05215,-2.632582 0.190739,-5.402729 -1.068138,-7.823357c-0.717544,-1.807338 -1.939887,-3.403058 -2.449989,-5.286501c-0.634769,-2.922034 0.149306,-6.233863 2.511766,-8.195537c2.664298,-2.282964 6.918979,-2.580522 9.851843,-0.640142c2.06857,1.424861 3.56109,3.774948 3.505642,6.339446c0.242722,1.916248 -0.513563,3.718645 -1.40325,5.365973c-0.637424,1.32638 -1.381842,2.624308 -1.960402,3.965478c-0.152523,2.749894 -0.065048,5.525011 -0.47875,8.251253c-0.689151,2.112525 -3.286298,3.548832 -5.430655,2.800981l0,0.000001zm5.380324,-4.916857c-1.208971,-0.651671 -2.946254,-0.227986 -4.351506,-0.368281c-1.147905,0.229599 -3.187609,-0.470925 -3.797858,0.57989c1.395602,0.545937 3.035727,0.136694 4.521477,0.227017c1.188824,-0.114179 2.556592,0.108276 3.627887,-0.438627l0,0.000001zm-0.090543,-1.226257c0.17792,-1.65563 -2.440203,-0.810792 -3.503782,-1.057256c-1.407717,0.284934 -3.647971,-0.60991 -4.533314,0.662166c0.524627,1.278339 2.864324,0.379298 4.092941,0.662928c1.310196,-0.046428 2.669461,0.046959 3.944154,-0.267838l0.000001,0zm0.0163,-2.900808c0.345625,-3.22521 2.317604,-5.910606 3.459468,-8.860854c0.93883,-3.532294 -0.920495,-7.567776 -4.286782,-9.050483c-3.350622,-1.660604 -7.814734,-0.406118 -9.708281,2.847799c-1.824446,2.68782 -1.476264,6.339817 0.306904,8.9537c1.272335,2.284397 2.287462,4.851579 2.122101,7.510093c2.641069,0 5.282139,0 7.923211,0c0.061129,-0.466745 0.122238,-0.933521 0.183379,-1.400255zm-5.846887,-4.569249c-1.046403,-1.819442 -2.120612,-3.652904 -2.849275,-5.624733c0.655114,-0.848016 0.845691,-1.792616 1.0492,-2.788992c1.838711,-0.361168 -0.234047,2.095367 1.501958,2.150725c1.540968,0.670463 0.864969,-3.253297 2.145235,-1.838967c-0.91902,1.552217 1.805199,3.096379 1.905179,0.875861c-0.132065,-1.676596 1.64659,-1.362471 0.953129,0.158547c0.057236,0.782439 1.331154,1.006754 1.352965,1.63606c-0.917095,1.989256 -1.714246,4.043009 -2.800191,5.947383c-0.244434,-0.737322 0.96138,-2.585294 1.346685,-3.67034c0.743497,-0.93793 1.382393,-3.465572 -0.555859,-3.121028c-1.124357,1.753708 -2.636856,-1.105445 -3.737758,0.575222c-0.934551,0.278768 -2.404396,-1.618506 -2.675499,0.205759c0.703864,2.16676 2.168449,4.01339 2.934746,6.157783c-0.260024,-0.153308 -0.408089,-0.422273 -0.570514,-0.663279l0,0.000001zm-1.46874,-7.940911c-0.508838,-0.24834 0.214471,1.320226 -0.00001,0l0.00001,0zm3.041319,0.18527c-0.660526,-1.117865 -0.306275,1.356321 0,0zm2.947903,0c-0.660526,-1.117865 -0.306279,1.356321 0,0zm-13.723862,-8.260062c-1.167466,-1.184868 -2.457956,-2.296672 -3.473267,-3.602722c2.53647,2.099631 4.85806,4.464265 7.143908,6.834822c0.606993,0.834095 -1.05894,-0.778908 -1.368996,-1.049283c-0.775795,-0.718485 -1.541428,-1.447892 -2.301645,-2.182816l0.000001,0zm18.028019,3.387662c1.973303,-2.458731 3.814439,-5.036362 5.941949,-7.36412c-0.356248,1.002216 -1.503037,2.20144 -2.224095,3.233631c-1.204162,1.498107 -2.329737,3.08208 -3.706726,4.425279c-0.171863,0.181659 -0.428496,-0.248614 -0.01111,-0.29479l-0.000017,0l-0.000001,0zm-4.274219,-2.332564c0.681793,-1.950125 1.670745,-3.806414 2.774061,-5.551732c-0.025642,0.968215 -1.19579,2.803305 -1.758236,4.003853c-0.318172,0.483112 -0.586541,1.253575 -1.015825,1.547878zm-8.731014,-2.500963c-0.474932,-0.692754 -1.904603,-2.305811 -1.637662,-2.525789c1.378388,1.528299 2.780315,3.105741 3.770481,4.913086c-0.843227,-0.646717 -1.449963,-1.580792 -2.132821,-2.387297l0.000001,0zm5.458372,-0.545205c-0.096119,-0.65059 0.202264,-3.756365 0.36803,-1.64748c0.000589,1.321315 0.138508,2.808791 -0.229274,4.011435c-0.157493,-0.773205 -0.119282,-1.578159 -0.138756,-2.363955z" stroke-width="1.5" fill="#ead833"/>
  <text font-style="normal" font-weight="bold" xml:space="preserve" text-anchor="start" font-family="'Times New Roman', Times, serif" font-size="21" id="svg_2" y="28.251109" x="11.264359" stroke-width="0" stroke="#000000" fill="#124591">KLEPIKOVA</text>
 </g>
</svg>