<svg version="1.1" id="Layer_1" xmlns="http://www.w3.org/2000/svg" x="0" y="0" viewBox="0 0 200 200" xml:space="preserve"><style>.st1{fill:#ffbe57;stroke:#391410;stroke-width:5;stroke-linecap:round;stroke-linejoin:round;stroke-miterlimit:10}</style><path class="st1" d="M46.5 136.3v10.5c0 5.1 5.8 9.3 12.8 9.3h79.8c7.1 0 12.8-4.2 12.8-9.3v-10.5H46.5z"/><path d="M152.6 137.5H47.4c-3.8 0-6.9-3.1-6.9-6.9v-2.5c0-3.8 3.1-6.9 6.9-6.9h105.2c3.8 0 6.9 3.1 6.9 6.9v2.5c0 3.8-3.1 6.9-6.9 6.9z" fill="#cc4825" stroke="#391410" stroke-width="5" stroke-linecap="round" stroke-linejoin="round" stroke-miterlimit="10"/><path fill="#fcee21" stroke="#391410" stroke-width="5" stroke-linecap="round" stroke-linejoin="round" stroke-miterlimit="10" d="M57.5 119.5l57 27 34-31"/><path d="M150.9 120.5H49.1c-3.6 0-6.6-2.9-6.6-6.6v-1.8c0-3.6 2.9-6.6 6.6-6.6h101.8c3.6 0 6.6 2.9 6.6 6.6v1.8c0 3.7-2.9 6.6-6.6 6.6z" fill="#8c6239" stroke="#391410" stroke-width="5" stroke-linecap="round" stroke-linejoin="round" stroke-miterlimit="10"/><path d="M133 84.5c-4.6 0-8.8 1.9-11.7 4.8-2.9-3-7.1-4.8-11.7-4.8-4.4 0-8.3 1.6-11.2 4.3-2.9-2.7-6.8-4.3-11.2-4.3s-8.3 1.6-11.2 4.3c-2.9-2.7-6.8-4.3-11.2-4.3-8.8 0-16 6.7-16 15s7.1 15 16 15c4.4 0 8.3-1.6 11.2-4.3 2.9 2.7 6.8 4.3 11.2 4.3s8.3-1.6 11.2-4.3c2.9 2.7 6.8 4.3 11.2 4.3 4.6 0 8.8-1.9 11.7-4.8 2.9 3 7.1 4.8 11.7 4.8 8.8 0 16-6.7 16-15s-7.1-15-16-15z" fill="#48b748" stroke="#391410" stroke-width="5" stroke-linecap="round" stroke-linejoin="round" stroke-miterlimit="10"/><path class="st1" d="M98.5 44c-29.4 0-53.7 21.7-57.9 49.9-.7 4.5 2.8 8.6 7.4 8.6h101c4.6 0 8.1-4.1 7.4-8.6C152.2 65.7 127.9 44 98.5 44zM135 69.7c5 4.9 10.4 13.2 11.4 22.4m-16.9-27.6s-4-6-14-10"/></svg>